<svg version="1.1" id="Layer_1" xmlns="http://www.w3.org/2000/svg" xmlns:xlink="http://www.w3.org/1999/xlink" x="0px" y="0px"
	 width="100%" viewBox="0 0 1024 1024" enable-background="new 0 0 1024 1024" xml:space="preserve">
<path fill="#111010" opacity="1.000000" stroke="none" 
	d="
M618.243103,903.368103 
	C591.820007,910.147766 565.485229,914.687622 538.598267,916.337341 
	C496.172455,918.940552 454.364716,915.323669 413.251526,904.702271 
	C357.321930,890.253052 306.573883,865.242188 261.420685,829.045227 
	C202.823486,782.071106 160.434677,723.298279 133.835297,653.191528 
	C122.448837,623.180847 115.625633,591.986938 111.582542,560.133545 
	C108.868774,538.753052 107.853996,517.309814 108.869247,495.848328 
	C109.954369,472.909698 113.176453,450.169189 117.948181,427.679535 
	C128.516373,377.870544 148.112259,331.820709 176.274734,289.483307 
	C197.145401,258.107880 221.829697,230.016708 250.624969,205.588531 
	C288.370697,173.567352 330.381989,148.929276 377.001526,132.248840 
	C405.802399,121.943901 435.479736,115.446991 465.821594,111.583046 
	C488.039612,108.753654 510.339630,107.591110 532.601135,108.975639 
	C563.376526,110.889679 593.797241,115.641792 623.535339,124.208336 
	C687.513367,142.638306 743.647644,174.698975 791.735413,220.767990 
	C855.105530,281.477936 894.616516,355.153259 910.754089,441.294006 
	C918.635193,483.362152 919.292236,525.710754 913.381104,568.124695 
	C902.442688,646.610657 871.165710,716.045105 819.555298,776.065979 
	C765.594299,838.820435 698.371582,881.026489 618.243103,903.368103 
M187.053497,333.509644 
	C172.428421,360.221100 161.044174,388.225250 153.172379,417.667572 
	C142.353836,458.131409 139.013397,499.231537 141.978424,540.953735 
	C143.589142,563.618591 147.152954,585.934021 153.024734,607.865662 
	C167.875458,663.334473 194.010818,712.837158 231.597427,756.299377 
	C274.398071,805.790771 326.758484,841.395813 388.164062,863.599670 
	C419.301331,874.858704 451.489563,881.662903 484.609009,883.998535 
	C514.146790,886.081604 543.555237,885.276245 572.749023,880.402283 
	C605.247986,874.976746 636.574036,865.568176 666.612366,851.833130 
	C714.441040,829.963623 755.773926,799.362000 790.819763,760.241211 
	C817.387207,730.584656 838.453735,697.361633 854.460632,660.916260 
	C870.055176,625.409851 879.536926,588.244385 883.484314,549.761658 
	C885.779785,527.384521 885.599121,504.886292 883.900574,482.394623 
	C881.833252,455.020447 876.483765,428.286407 868.360840,402.168793 
	C852.965576,352.668335 828.109985,308.357635 794.038818,269.205475 
	C759.406616,229.408691 718.234192,198.335297 670.561157,175.827469 
	C627.710449,155.596420 582.550720,144.103348 535.311768,141.443985 
	C492.927338,139.057938 451.160828,143.380814 410.243866,155.252029 
	C366.388062,167.975845 326.157471,187.963379 289.714783,215.358429 
	C247.316696,247.230301 213.231110,286.491486 187.053497,333.509644 
z"/>
<path fill="#111010" opacity="1.000000" stroke="none" 
	d="
M429.984344,525.430908 
	C422.321960,525.425537 415.154633,525.523376 407.992737,525.369141 
	C404.522400,525.294434 402.955719,526.669678 402.283112,530.104126 
	C395.984497,562.267883 389.506592,594.396484 383.227173,626.563904 
	C382.443695,630.577332 380.625641,632.264160 376.532349,632.122803 
	C370.540619,631.915894 364.536133,632.113098 358.538391,632.036255 
	C353.341156,631.969604 352.809113,631.228394 353.837128,626.039795 
	C360.204254,593.903992 366.583801,561.770630 372.937927,529.632263 
	C381.517151,486.239563 390.131195,442.853516 398.556549,399.430878 
	C399.344116,395.371735 400.905426,393.818604 405.069702,393.829590 
	C444.894012,393.934784 484.718781,393.878357 524.543396,393.900909 
	C530.378296,393.904236 530.506714,394.113159 529.443604,399.859680 
	C528.566101,404.602966 527.366882,409.302124 526.776733,414.078491 
	C526.260071,418.259918 524.354675,419.482544 520.210815,419.459473 
	C490.551544,419.294189 460.889648,419.505981 431.231873,419.236511 
	C425.872406,419.187836 423.765381,420.588043 422.782227,426.066772 
	C418.727875,448.659790 414.199738,471.169525 409.652985,493.670929 
	C408.776581,498.008057 410.440460,498.864868 414.264069,498.850861 
	C437.092041,498.767273 459.920563,498.818268 482.748901,498.837524 
	C488.573700,498.842407 488.906311,499.215515 487.849335,504.731873 
	C486.815857,510.125397 485.548248,515.478821 484.678131,520.897156 
	C484.115723,524.399292 482.403564,525.492065 478.939423,525.476013 
	C462.787415,525.401001 446.634583,526.067139 429.984344,525.430908 
z"/>
<path fill="#111010" opacity="1.000000" stroke="none" 
	d="
M547.580444,535.718201 
	C556.622742,489.797699 565.656189,444.308533 574.519592,398.786224 
	C575.248718,395.041412 576.866638,393.755219 580.499023,393.848969 
	C586.990601,394.016510 593.490417,393.944000 599.985535,393.867645 
	C603.539062,393.825867 604.697815,395.280334 603.989319,398.814545 
	C596.246277,437.439789 588.572449,476.078918 580.889099,514.716125 
	C575.085083,543.902771 569.290833,573.091492 563.514709,602.283691 
	C563.325806,603.238708 563.383606,604.242554 563.333679,605.099182 
	C564.895935,606.688110 566.654968,605.983582 568.222534,605.985657 
	C599.703308,606.026367 631.184082,606.013062 662.664917,606.017273 
	C670.552612,606.018372 670.732117,606.215515 669.270630,613.826660 
	C668.454773,618.075439 667.284424,622.272095 666.734558,626.551453 
	C666.160095,631.022339 663.796021,632.136658 659.610596,632.114441 
	C632.461182,631.970276 605.310669,632.017212 578.160522,632.017212 
	C563.669373,632.017151 549.178162,632.072571 534.687073,632.053955 
	C528.944153,632.046631 528.562073,631.601624 529.647583,626.119873 
	C535.587891,596.122986 541.563782,566.133179 547.580444,535.718201 
z"/>
</svg>